<svg width="13" height="17" viewBox="0 0 13 17" fill="none" xmlns="http://www.w3.org/2000/svg">
<path fill-rule="evenodd" clip-rule="evenodd" d="M6.62652 2.6208C4.20967 2.6208 2.25043 4.58004 2.25043 6.99688C2.25043 8.79249 3.05188 10.5507 4.06554 12.0427C4.97275 13.3781 6.00355 14.4322 6.62652 15.0161C7.24949 14.4322 8.28028 13.3781 9.1875 12.0427C10.2012 10.5507 11.0026 8.79249 11.0026 6.99688C11.0026 4.58004 9.04337 2.6208 6.62652 2.6208ZM0.5 6.99688C0.5 3.6133 3.24294 0.870361 6.62652 0.870361C10.0101 0.870361 12.753 3.6133 12.753 6.99688C12.753 9.29235 11.7413 11.3986 10.6354 13.0264C9.52221 14.6649 8.25467 15.905 7.61407 16.4865C7.0503 16.9983 6.20273 16.9983 5.63897 16.4865C4.99837 15.905 3.73083 14.6649 2.61765 13.0264C1.51172 11.3986 0.5 9.29235 0.5 6.99688ZM6.62652 5.90286C6.02231 5.90286 5.5325 6.39267 5.5325 6.99688C5.5325 7.60109 6.02231 8.0909 6.62652 8.0909C7.23073 8.0909 7.72054 7.60109 7.72054 6.99688C7.72054 6.39267 7.23073 5.90286 6.62652 5.90286ZM3.78206 6.99688C3.78206 5.42593 5.05557 4.15243 6.62652 4.15243C8.19747 4.15243 9.47097 5.42593 9.47097 6.99688C9.47097 8.56783 8.19747 9.84134 6.62652 9.84134C5.05557 9.84134 3.78206 8.56783 3.78206 6.99688Z" fill="#F55951"/>
</svg>
