<svg width="18" height="18" viewBox="0 0 18 18" fill="none" xmlns="http://www.w3.org/2000/svg">
<path fill-rule="evenodd" clip-rule="evenodd" d="M9 0C13.977 0 18 4.023 18 9C18 13.977 13.977 18 9 18C4.023 18 0 13.977 0 9C0 4.023 4.023 0 9 0ZM12.231 4.5L9 7.731L5.769 4.5L4.5 5.769L7.731 9L4.5 12.231L5.769 13.5L9 10.269L12.231 13.5L13.5 12.231L10.269 9L13.5 5.769L12.231 4.5Z" fill="#D8D8D8"/>
<mask id="mask0_18_132" style="mask-type:luminance" maskUnits="userSpaceOnUse" x="0" y="0" width="18" height="18">
<path fill-rule="evenodd" clip-rule="evenodd" d="M9 0C13.977 0 18 4.023 18 9C18 13.977 13.977 18 9 18C4.023 18 0 13.977 0 9C0 4.023 4.023 0 9 0ZM12.231 4.5L9 7.731L5.769 4.5L4.5 5.769L7.731 9L4.5 12.231L5.769 13.5L9 10.269L12.231 13.5L13.5 12.231L10.269 9L13.5 5.769L12.231 4.5Z" fill="white"/>
</mask>
<g mask="url(#mask0_18_132)">
</g>
</svg>
