<svg width="12" height="12" viewBox="0 0 12 12" fill="none" xmlns="http://www.w3.org/2000/svg">
<path d="M11.6202 10.8612L10.8 8.4H9.89997L10.3998 10.8H1.60017L2.09997 8.4H1.19997L0.379172 10.8612C0.170972 11.4876 0.539972 12 1.19997 12H10.8C11.46 12 11.829 11.4876 11.6202 10.8612ZM8.99997 3C8.99997 2.20435 8.6839 1.44129 8.12129 0.87868C7.55868 0.316071 6.79562 0 5.99997 0C5.20432 0 4.44126 0.316071 3.87865 0.87868C3.31604 1.44129 2.99997 2.20435 2.99997 3C2.99997 5.865 5.99997 9 5.99997 9C5.99997 9 8.99997 5.865 8.99997 3ZM4.37997 3.036C4.37997 2.1414 5.10477 1.4166 5.99997 1.4166C6.42954 1.4166 6.84152 1.58725 7.14527 1.891C7.44903 2.19475 7.61967 2.60673 7.61967 3.0363C7.61967 3.46587 7.44903 3.87785 7.14527 4.1816C6.84152 4.48535 6.42954 4.656 5.99997 4.656C5.57032 4.656 5.15827 4.48532 4.85446 4.18151C4.55065 3.8777 4.37997 3.46565 4.37997 3.036Z" fill="#F55951"/>
</svg>
